<?xml version="1.0" encoding="UTF-8"?>
<svg id="Capa_1" data-name="Capa 1" xmlns="http://www.w3.org/2000/svg" viewBox="0 0 50 50">
  <defs>
    <style>
      .cls-1 {
        fill: #000;
      }

      .cls-1, .cls-2 {
        stroke-width: 0px;
      }

      .cls-2 {
        fill: #fff;
      }
    </style>
  </defs>
  <path class="cls-1" d="M49.63,25C49.63,11.37,38.69.33,25.18.33S.72,11.37.72,25c0,12.31,8.94,22.52,20.64,24.37v-17.24h-6.21v-7.13h6.21v-5.44c0-6.18,3.65-9.6,9.24-9.6,2.68,0,5.47.48,5.47.48v6.07h-3.08c-3.04,0-3.99,1.9-3.99,3.85v4.63h6.78l-1.08,7.13h-5.7v17.24c11.69-1.85,20.64-12.06,20.64-24.37Z"/>
  <path class="cls-2" d="M34.7,32.13l1.08-7.13h-6.78v-4.63c0-1.95.95-3.85,3.99-3.85h3.08v-6.07s-2.8-.48-5.47-.48c-5.59,0-9.24,3.42-9.24,9.6v5.44h-6.21v7.13h6.21v17.24c1.25.2,2.52.3,3.82.3s2.58-.1,3.82-.3v-17.24h5.7Z"/>
</svg>