<?xml version="1.0" encoding="UTF-8"?>
<svg id="Capa_1" data-name="Capa 1" xmlns="http://www.w3.org/2000/svg" viewBox="0 0 50 50">
  <defs>
    <style>
      .cls-1 {
        fill: #000;
      }

      .cls-1, .cls-2 {
        stroke-width: 0px;
      }

      .cls-2 {
        fill: #fff;
      }
    </style>
  </defs>
  <circle class="cls-1" cx="25" cy="25" r="24.63"/>
  <g>
    <path class="cls-2" d="M25,12.28c4.14,0,4.63.02,6.27.09,1.51.07,2.33.32,2.88.53.72.28,1.24.62,1.78,1.16.54.54.88,1.06,1.16,1.78.21.55.47,1.37.53,2.88.07,1.64.09,2.13.09,6.27s-.02,4.63-.09,6.27c-.07,1.51-.32,2.33-.53,2.88-.28.72-.62,1.24-1.16,1.78-.54.54-1.06.88-1.78,1.16-.55.21-1.37.47-2.88.53-1.64.07-2.13.09-6.27.09s-4.63-.02-6.27-.09c-1.51-.07-2.33-.32-2.88-.53-.72-.28-1.24-.62-1.78-1.16-.54-.54-.88-1.06-1.16-1.78-.21-.55-.47-1.37-.53-2.88-.07-1.64-.09-2.13-.09-6.27s.02-4.63.09-6.27c.07-1.51.32-2.33.53-2.88.28-.72.62-1.24,1.16-1.78.54-.54,1.06-.88,1.78-1.16.55-.21,1.37-.47,2.88-.53,1.64-.07,2.13-.09,6.27-.09M25,9.49c-4.21,0-4.74.02-6.39.09-1.65.08-2.78.34-3.76.72-1.02.4-1.88.93-2.75,1.79-.86.86-1.39,1.73-1.79,2.75-.38.99-.65,2.11-.72,3.76-.08,1.65-.09,2.18-.09,6.39s.02,4.74.09,6.39c.08,1.65.34,2.78.72,3.76.4,1.02.93,1.88,1.79,2.75.86.86,1.73,1.39,2.75,1.79.99.38,2.11.65,3.76.72,1.65.08,2.18.09,6.39.09s4.74-.02,6.39-.09c1.65-.08,2.78-.34,3.76-.72,1.02-.4,1.88-.93,2.75-1.79.86-.86,1.39-1.73,1.79-2.75.38-.99.65-2.11.72-3.76.08-1.65.09-2.18.09-6.39s-.02-4.74-.09-6.39c-.08-1.65-.34-2.78-.72-3.76-.4-1.02-.93-1.88-1.79-2.75-.86-.86-1.73-1.39-2.75-1.79-.99-.38-2.11-.65-3.76-.72-1.65-.08-2.18-.09-6.39-.09h0Z"/>
    <path class="cls-2" d="M25,17.04c-4.4,0-7.96,3.57-7.96,7.96s3.57,7.96,7.96,7.96,7.96-3.57,7.96-7.96-3.57-7.96-7.96-7.96ZM25,30.17c-2.86,0-5.17-2.31-5.17-5.17s2.31-5.17,5.17-5.17,5.17,2.31,5.17,5.17-2.31,5.17-5.17,5.17Z"/>
    <circle class="cls-2" cx="33.28" cy="16.72" r="1.86"/>
  </g>
</svg>