<?xml version="1.0" encoding="UTF-8"?>
<svg id="OBJECTS" xmlns="http://www.w3.org/2000/svg" xmlns:xlink="http://www.w3.org/1999/xlink" viewBox="0 0 60 60">
  <defs>
    <style>
      .cls-1 {
        fill: #32ba46;
      }

      .cls-1, .cls-2, .cls-3 {
        stroke-width: 0px;
      }

      .cls-2 {
        fill: none;
      }

      .cls-4 {
        clip-path: url(#clippath);
      }

      .cls-3 {
        fill: #fff;
      }
    </style>
    <clipPath id="clippath">
      <circle class="cls-2" cx="30" cy="30" r="30"/>
    </clipPath>
  </defs>
  <g class="cls-4">
    <g>
      <path class="cls-1" d="M30,60c-5.25,0-10.4-1.39-14.96-4.03l-11.69,4.03,2.4-12.38C1.98,42.46,0,36.39,0,30,0,13.46,13.46,0,30,0s30,13.46,30,30-13.46,30-30,30Z"/>
      <g>
        <g>
          <path class="cls-2" d="M30,11.86c-10.02,0-18.14,8.12-18.14,18.14,0,4.21,1.45,8.07,3.85,11.15l-1.21,6.24,5.89-2.03c2.79,1.75,6.07,2.77,9.61,2.77,10.02,0,18.14-8.12,18.14-18.14s-8.12-18.14-18.14-18.14Z"/>
          <path class="cls-3" d="M30,49.6c-3.43,0-6.79-.91-9.77-2.63l-7.64,2.63,1.57-8.09c-2.46-3.37-3.76-7.34-3.76-11.51,0-10.81,8.79-19.6,19.6-19.6s19.6,8.79,19.6,19.6-8.79,19.6-19.6,19.6ZM20.58,43.76l.59.37c2.66,1.67,5.72,2.55,8.83,2.55,9.2,0,16.68-7.48,16.68-16.68s-7.48-16.68-16.68-16.68-16.68,7.48-16.68,16.68c0,3.74,1.23,7.29,3.54,10.26l.41.52-.86,4.42,4.16-1.43Z"/>
        </g>
        <path class="cls-3" d="M20.11,22.47s1.15-2.01,2.09-2.12c.94-.12,2.14-.12,2.47.5.33.61,1.78,4.17,1.78,4.17,0,0,.25.61-.13,1.21-.38.59-1.24,1.45-1.24,1.45,0,0-.48.61,0,1.26.48.65,1.22,1.85,2.76,3.38,1.53,1.54,4.48,2.63,4.48,2.63,0,0,.42.06.69-.21.27-.27,1.72-2.09,1.72-2.09,0,0,.47-.6,1.24-.25.78.35,4.13,2.03,4.13,2.03,0,0,.39.14.39.74s-.24,2.05-.73,2.54c-.49.49-1.93,2.01-4.08,2.01s-7.29-1.76-10.03-4.49c-2.74-2.74-5.17-5.51-5.74-8.04-.57-2.53-.5-3.67.21-4.71Z"/>
      </g>
    </g>
  </g>
</svg>