<?xml version="1.0" encoding="UTF-8"?>
<svg id="Capa_1" data-name="Capa 1" xmlns="http://www.w3.org/2000/svg" viewBox="0 0 50 50">
  <defs>
    <style>
      .cls-1 {
        fill: #000;
      }

      .cls-1, .cls-2 {
        stroke-width: 0px;
      }

      .cls-2 {
        fill: #fff;
      }
    </style>
  </defs>
  <path class="cls-1" d="M49.63,25.03c0,13.43-11.01,24.32-24.6,24.32h0C11.45,49.35.43,38.46.43,25.03H.43C.43,11.6,11.45.72,25.03.72h0c13.59,0,24.6,10.89,24.6,24.32h0Z"/>
  <path class="cls-2" d="M28.58,22.8l9.95-10.52h-3.78l-7.81,8.26-5.98-8.26h-10.34l10.46,14.45-10.46,11.06h3.78l8.32-8.8,6.37,8.8h10.34l-10.86-14.99ZM15.95,14.98h3.6l14.56,20.1h-3.6L15.95,14.98Z"/>
</svg>